<svg xmlns="http://www.w3.org/2000/svg" width="483.5" height="128" viewBox="0 0 483.5 128">
  <title>Asset 1</title>
  <g id="Layer_2" data-name="Layer 2">
    <g id="Layer_1-2" data-name="Layer 1">
      <g>
        <path d="M197.75,0h88a20,20,0,0,1,20,20v88a20,20,0,0,1-20,20h-88a20,20,0,0,1-20-20V20a20,20,0,0,1,20-20" style="fill: #191942"/>
        <path d="M230.31,78.14H210.77L206.8,91a1,1,0,0,1-1,.76h-9.9c-.56,0-.76-.31-.59-.93l16.92-48c.17-.51.34-1.08.51-1.73a18,18,0,0,0,.34-3.43.53.53,0,0,1,.44-.59h13.6c.39,0,.62.14.67.42L247,90.94c.17.56,0,.85-.5.84h-11a.78.78,0,0,1-.85-.59Zm-16.49-9h13.36c-.34-1.12-.73-3.44-1.18-4.85l-1.44-4.52c-.51-1.61-1-3.22-1.52-4.82s-1-3.16-1.4-4.66-.8-2.86-1.14-4.1h-.09A65.41,65.41,0,0,1,218.63,53q-1.19,3.81-2.41,7.78c-.81,2.65-1.61,6.15-2.4,8.4" style="fill: #b5b5e3"/>
        <path d="M278,73.53H261.32A12.88,12.88,0,0,0,263,78.37a8.7,8.7,0,0,0,3.85,3.17A16.55,16.55,0,0,0,273.75,83a23.37,23.37,0,0,0,4.72-.37,23.12,23.12,0,0,0,4.95-1.48q.42-.34.42.42v8a1.27,1.27,0,0,1-.12.63,1.37,1.37,0,0,1-.38.38,23.83,23.83,0,0,1-5.5,1.82,34.14,34.14,0,0,1-6.85.27,24.32,24.32,0,0,1-10.07-1.86,18,18,0,0,1-6.6-5,19.47,19.47,0,0,1-3.63-6.9,27.11,27.11,0,0,1-1.1-7.65A26.48,26.48,0,0,1,250.9,63a21.67,21.67,0,0,1,3.93-7.19,19,19,0,0,1,6.35-5A20,20,0,0,1,270,49a21.2,21.2,0,0,1,8.6,1.7A14.74,14.74,0,0,1,284.12,55a19.09,19.09,0,0,1,3.12,6,21.29,21.29,0,0,1,1,6.43c0,1.24,0,2.36-.13,3.38a15.61,15.61,0,0,1-.32,1.79.78.78,0,0,1-.77.68c-.33,0-.91,0-1.73.13s-2.27,0-3.48.08-2.5,0-3.85,0m-16.71-6.72h11.08c1.35,0,2.35,0,3,0a6.42,6.42,0,0,0,1.23-.13v-.51a14.55,14.55,0,0,0-.18-3,6.9,6.9,0,0,0-6.85-4.82,7.34,7.34,0,0,0-7,4,18,18,0,0,0-1.3,4.55" style="fill: #b5b5e3"/>
      </g>
      <g>
        <path d="M20,0h88a20,20,0,0,1,20,20v88a20,20,0,0,1-20,20H20A20,20,0,0,1,0,108V20A20,20,0,0,1,20,0" style="fill: #191942"/>
        <path d="M42,56.9q4,13.84,5.31,18.87,1.26-5,5.3-18.87,4.89-16.49,5.44-18.47v0h0a1.34,1.34,0,0,1,.47-.69,1.39,1.39,0,0,1,.81-.26H71.6a1.32,1.32,0,0,1,.77.23,1.11,1.11,0,0,1,.45.72v.05L75,90.24a1.21,1.21,0,0,1-.31,1,1.36,1.36,0,0,1-1,.36h-8.8A1.41,1.41,0,0,1,64,91.3a1.2,1.2,0,0,1-.39-.92Q63,63.79,63.1,50.64q-2.72,10-10.93,39.9v0l0,0a1.6,1.6,0,0,1-.55.71,1.51,1.51,0,0,1-.87.26h-6.8a1.51,1.51,0,0,1-.87-.26,1.6,1.6,0,0,1-.55-.71l0,0v0q-8.22-29.9-10.93-39.9.06,13.14-.46,39.74a1.2,1.2,0,0,1-.39.92,1.41,1.41,0,0,1-.93.31H21a1.36,1.36,0,0,1-1-.36,1.21,1.21,0,0,1-.31-1l2.16-51.79V38.4a1.11,1.11,0,0,1,.45-.72,1.27,1.27,0,0,1,.77-.23H35.29a1.34,1.34,0,0,1,.8.26,1.36,1.36,0,0,1,.48.69h0v0q.55,2,5.44,18.47Z" style="fill: #b5b5e3"/>
        <path d="M109.55,90.19l.08,0,.07-.06a1.91,1.91,0,0,0,.73-1.48V82.77a1.82,1.82,0,0,0-.06-.46.92.92,0,0,0-.37-.5.83.83,0,0,0-.67-.12,1.14,1.14,0,0,0-.38.16,21.78,21.78,0,0,1-8.8,1.68c-3.62,0-6.21-1-7.91-2.75a10.54,10.54,0,0,1-2.67-6.93h13.94a67.11,67.11,0,0,0,8.26-.33,1.37,1.37,0,0,0,1.2-1.18,24.6,24.6,0,0,0,.34-4.77,18.43,18.43,0,0,0-4.07-11.86c-2.72-3.46-6.87-5.14-12.29-5.14-5.73,0-10.3,2-13.65,6.17s-5,9.15-5,15.15c0,5.78,1.56,10.66,4.71,14.58h0c3.26,3.94,8.31,5.85,15,5.85a27.74,27.74,0,0,0,11.48-2.14M89.63,66.33a11.77,11.77,0,0,1,2.1-5.47,5.71,5.71,0,0,1,4.9-2.29c2.24,0,3.73.73,4.64,2.1a8.91,8.91,0,0,1,1.48,5.06c0,.21,0,.39,0,.53l-.64,0c-.64,0-1.53,0-2.67,0Z" style="fill: #b5b5e3;fill-rule: evenodd"/>
      </g>
      <g>
        <path d="M375.5,0h88a20,20,0,0,1,20,20v88a20,20,0,0,1-20,20h-88a20,20,0,0,1-20-20V20a20,20,0,0,1,20-20" style="fill: #191942"/>
        <path d="M385.68,90.59V36.65c0-.46.23-.69.46-.69H398c1.6,0,3.66.46,5.26.46A34.31,34.31,0,0,1,414,38a17.58,17.58,0,0,1,7.09,4.34,18.09,18.09,0,0,1,3.89,6,24.15,24.15,0,0,1,1.14,6.85,18.27,18.27,0,0,1-3.2,11.2,16.8,16.8,0,0,1-8.46,6.4,34.86,34.86,0,0,1-11.88,2.06h-2.52c-.46,0-2.51-.46-3.66-.46V91.05a.61.61,0,0,1-.51.69h-9.77c-.23-.46-.46-.69-.46-1.15m11-44.57v17.6c.69,0,2.74.46,3.43.46h2.74a17,17,0,0,0,5.95-.92,8.81,8.81,0,0,0,4.34-2.74,7.79,7.79,0,0,0,1.6-5.49,10.54,10.54,0,0,0-1.14-4.57,7.68,7.68,0,0,0-3.66-3,19.69,19.69,0,0,0-6.17-1.14h-3.66a13.16,13.16,0,0,1-3.43-.23" style="fill: #b5b5e3"/>
        <path d="M433.45,49.68h9.15a1.52,1.52,0,0,1,1.14.91c.23.46.46.69.46,1.15a4.12,4.12,0,0,1,.23,1.6v1.82a18.77,18.77,0,0,1,5.71-4.57,12.14,12.14,0,0,1,7.31-1.83c.46,0,.69.23.69.46V59.74c0,.45-.23.68-.91.68a12.22,12.22,0,0,0-5,.46,13.63,13.63,0,0,0-4.35,1.37,10.49,10.49,0,0,0-3.42,2.06V91.05a.62.62,0,0,1-.52.69h-9.77c-.46,0-.69-.23-.92-.69V57.91a24.69,24.69,0,0,0-.22-4.12c0-1.14-.23-2.28-.23-3.43,0-.23,0-.23.23-.45,0-.23.22-.23.45-.23" style="fill: #b5b5e3"/>
      </g>
    </g>
  </g>
</svg>
